{"title":"Knock Knock 2 2011 DVDRip x264 AAC-UNiQUE","uid":7516157,"size":1086620915,"categoryP":"video","categoryS":"movies","magnet":"?xt=urn:btih:5fd1e8a5a11237fa1c7d2801275cf310ad8fa288&amp;dn=Knock+Knock+2+2011+DVDRip+x264+AAC-UNiQUE&amp;tr=udp%3A%2F%2Ftracker.openbittorrent.com%3A80&amp;tr=udp%3A%2F%2Fopen.demonii.com%3A1337&amp;tr=udp%3A%2F%2Ftracker.coppersurfer.tk%3A6969&amp;tr=udp%3A%2F%2Fexodus.desync.com%3A6969","seeders":0,"leechers":1,"uploader":"neon","files":-1,"time":1344475724,"description":"Based on found footage, the story centers on four friends in their early 20s. Last year, on the night before Halloween, they decided to go on a self made tour of famous Hollywood murders and celebrity haunted houses. The tour led them to a house known as 1666. They have been missing ever since.\n \niMDB: &lt;a href=&quot; http://www.imdb.com/title/tt2093044/&quot; rel=&quot;nofollow&quot; target=&quot;_NEW&quot;&gt; http://www.imdb.com/title/tt2093044/&lt;/a&gt;\n\nGeneral\n Complete name : Knock Knock 2 2011 DVDRip x264 AAC-UNiQUE.mp4\n Format : MPEG-4\n Format profile : Base Media\n Codec ID : isom\n File size : 1 002 MiB\n Duration : 1h 24mn\n Overall bit rate mode : Variable\n Overall bit rate : 1 660 Kbps\n Encoded date : UTC 2012-08-08 21:46:59\n \nVideo\n ID : 1\n Format : AVC\n Format/Info : Advanced Video Codec\n Format profile : &lt;a class=&quot;__cf_email__&quot; href=&quot;/cdn-cgi/l/email-protection&quot; data-cfemail=&quot;c48cada3ac8488f0eaf5&quot;&gt;[email&amp;#160;protected]&lt;/a&gt;&lt;script cf-hash='f9e31' type=&quot;text/javascript&quot;&gt;\n/* &lt;![CDATA[ */!function(){try{var t=&quot;currentScript&quot;in document?document.currentScript:function(){for(var t=document.getElementsByTagName(&quot;script&quot;),e=t.length;e--;)if(t[e].getAttribute(&quot;cf-hash&quot;))return t[e]}();if(t&amp;&amp;t.previousSibling){var e,r,n,i,c=t.previousSibling,a=c.getAttribute(&quot;data-cfemail&quot;);if(a){for(e=&quot;&quot;,r=parseInt(a.substr(0,2),16),n=2;a.length-n;n+=2)i=parseInt(a.substr(n,2),16)^r,e+=String.fromCharCode(i);e=document.createTextNode(e),c.parentNode.replaceChild(e,c)}}}catch(u){}}();/* ]]&gt; */&lt;/script&gt;\n Format settings, CABAC : Yes\n Format settings, ReFrames : 3 frames\n Codec ID : avc1\n Codec ID/Info : Advanced Video Coding\n Duration : 1h 24mn\n Bit rate mode : Variable\n Bit rate : 1 309 Kbps\n Maximum bit rate : 40.0 Mbps\n Width : 720 pixels\n Height : 400 pixels\n Display aspect ratio : 16:9\n Frame rate mode : Constant\n Frame rate : 23.976 fps\n Color space : YUV\n Chroma subsampling : 4:2:0\n Bit depth : 8 bits\n Scan type : Progressive\n Bits/(Pixel*Frame) : 0.190\n Stream size : 790 MiB (79%)\n Writing library : x264 core 125 r2208 d9d2288\n \nAudio\n ID : 2\n Format : AAC\n Format/Info : Advanced Audio Codec\n Format profile : LC\n Codec ID : 40\n Duration : 1h 24mn\n Bit rate mode : Variable\n Bit rate : 353 Kbps\n Maximum bit rate : 385 Kbps\n Channel(s) : 6 channels\n Channel positions : Front: L C R, Side: L R, LFE\n Sampling rate : 48.0 KHz\n Compression mode : Lossy\n Stream size : 210 MiB (21%)\n Language : English\n Encoded date : UTC 2012-08-08 21:47:21\n \nSources : DVDR-TTR - Thanks!\n  &lt;a href=&quot;\nhttp://i.imgur.com/OLEUf.jpg&quot; rel=&quot;nofollow&quot; target=&quot;_NEW&quot;&gt;\nhttp://i.imgur.com/OLEUf.jpg&lt;/a&gt; &lt;a href=&quot;\nhttp://i.imgur.com/9iyzq.jpg&quot; rel=&quot;nofollow&quot; target=&quot;_NEW&quot;&gt;\nhttp://i.imgur.com/9iyzq.jpg&lt;/a&gt; &lt;a href=&quot;\nhttp://i.imgur.com/PzTtP.jpg&quot; rel=&quot;nofollow&quot; target=&quot;_NEW&quot;&gt;\nhttp://i.imgur.com/PzTtP.jpg&lt;/a&gt; &lt;a href=&quot;\nhttp://i.imgur.com/2Nndx.jpg&quot; rel=&quot;nofollow&quot; target=&quot;_NEW&quot;&gt;\nhttp://i.imgur.com/2Nndx.jpg&lt;/a&gt;","torrent":{"xt":"urn:btih:5fd1e8a5a11237fa1c7d2801275cf310ad8fa288","amp;dn":"Knock+Knock+2+2011+DVDRip+x264+AAC-UNiQUE","amp;tr":["udp%3A%2F%2Ftracker.openbittorrent.com%3A80","udp%3A%2F%2Fopen.demonii.com%3A1337","udp%3A%2F%2Ftracker.coppersurfer.tk%3A6969","udp%3A%2F%2Fexodus.desync.com%3A6969"],"infoHash":"5fd1e8a5a11237fa1c7d2801275cf310ad8fa288","infoHashBuffer":{"type":"Buffer","data":[95,209,232,165,161,18,55,250,28,125,40,1,39,92,243,16,173,143,162,136]},"announce":[],"urlList":[]}}